<mxfile host="app.diagrams.net" modified="2023-05-03T09:56:13.528Z" agent="Mozilla/5.0 (Windows NT 10.0; Win64; x64) AppleWebKit/537.36 (KHTML, like Gecko) Chrome/112.0.0.0 Safari/537.36" etag="LYQ0tZ_iudvPBocv1TkS" version="21.1.8" type="github">
  <diagram name="Page-1" id="8JGOmtCprbF5gdT7uRdH">
    <mxGraphModel dx="1120" dy="456" grid="1" gridSize="10" guides="1" tooltips="1" connect="0" arrows="1" fold="1" page="0" pageScale="1" pageWidth="1100" pageHeight="850" background="none" math="0" shadow="0">
      <root>
        <mxCell id="0" />
        <mxCell id="1" parent="0" />
        <mxCell id="fCs8iuJNnD6mWQEemUGZ-9" value="&lt;b&gt;AWS Cloud&lt;/b&gt;" style="points=[[0,0],[0.25,0],[0.5,0],[0.75,0],[1,0],[1,0.25],[1,0.5],[1,0.75],[1,1],[0.75,1],[0.5,1],[0.25,1],[0,1],[0,0.75],[0,0.5],[0,0.25]];outlineConnect=0;gradientColor=none;html=1;whiteSpace=wrap;fontSize=12;fontStyle=0;container=1;pointerEvents=0;collapsible=0;recursiveResize=0;shape=mxgraph.aws4.group;grIcon=mxgraph.aws4.group_aws_cloud_alt;strokeColor=#232F3E;fillColor=none;verticalAlign=top;align=left;spacingLeft=30;fontColor=#232F3E;dashed=0;" parent="1" vertex="1">
          <mxGeometry x="80" y="120" width="920" height="680" as="geometry" />
        </mxCell>
        <mxCell id="fCs8iuJNnD6mWQEemUGZ-10" value="" style="sketch=0;points=[[0,0,0],[0.25,0,0],[0.5,0,0],[0.75,0,0],[1,0,0],[0,1,0],[0.25,1,0],[0.5,1,0],[0.75,1,0],[1,1,0],[0,0.25,0],[0,0.5,0],[0,0.75,0],[1,0.25,0],[1,0.5,0],[1,0.75,0]];outlineConnect=0;fontColor=#232F3E;gradientColor=#945DF2;gradientDirection=north;fillColor=#5A30B5;strokeColor=#ffffff;dashed=0;verticalLabelPosition=bottom;verticalAlign=top;align=center;html=1;fontSize=12;fontStyle=0;aspect=fixed;shape=mxgraph.aws4.resourceIcon;resIcon=mxgraph.aws4.route_53;" parent="fCs8iuJNnD6mWQEemUGZ-9" vertex="1">
          <mxGeometry x="350" y="-20" width="58" height="58" as="geometry" />
        </mxCell>
        <mxCell id="fCs8iuJNnD6mWQEemUGZ-27" value="" style="edgeStyle=orthogonalEdgeStyle;rounded=0;orthogonalLoop=1;jettySize=auto;html=1;" parent="fCs8iuJNnD6mWQEemUGZ-9" source="fCs8iuJNnD6mWQEemUGZ-11" target="fCs8iuJNnD6mWQEemUGZ-18" edge="1">
          <mxGeometry relative="1" as="geometry" />
        </mxCell>
        <mxCell id="fCs8iuJNnD6mWQEemUGZ-11" value="&lt;font style=&quot;font-size: 11px;&quot; face=&quot;Times New Roman&quot;&gt;&lt;b&gt;DNS&lt;br&gt;Resolution&lt;/b&gt;&lt;/font&gt;" style="text;html=1;align=center;verticalAlign=middle;resizable=0;points=[];autosize=1;strokeColor=none;fillColor=none;" parent="fCs8iuJNnD6mWQEemUGZ-9" vertex="1">
          <mxGeometry x="344" y="38" width="70" height="40" as="geometry" />
        </mxCell>
        <mxCell id="fCs8iuJNnD6mWQEemUGZ-12" value="&lt;b&gt;VPC&lt;/b&gt;" style="points=[[0,0],[0.25,0],[0.5,0],[0.75,0],[1,0],[1,0.25],[1,0.5],[1,0.75],[1,1],[0.75,1],[0.5,1],[0.25,1],[0,1],[0,0.75],[0,0.5],[0,0.25]];outlineConnect=0;gradientColor=none;html=1;whiteSpace=wrap;fontSize=12;fontStyle=0;container=1;pointerEvents=0;collapsible=0;recursiveResize=0;shape=mxgraph.aws4.group;grIcon=mxgraph.aws4.group_vpc;strokeColor=#248814;fillColor=none;verticalAlign=top;align=left;spacingLeft=30;fontColor=#AAB7B8;dashed=0;" parent="fCs8iuJNnD6mWQEemUGZ-9" vertex="1">
          <mxGeometry x="40" y="120" width="800" height="480" as="geometry" />
        </mxCell>
        <mxCell id="fCs8iuJNnD6mWQEemUGZ-13" value="&lt;font style=&quot;font-size: 11px;&quot; face=&quot;Times New Roman&quot;&gt;&lt;b&gt;10.0.0.0/16&lt;/b&gt;&lt;/font&gt;" style="text;html=1;align=center;verticalAlign=middle;resizable=0;points=[];autosize=1;strokeColor=none;fillColor=none;" parent="fCs8iuJNnD6mWQEemUGZ-12" vertex="1">
          <mxGeometry x="20" y="20" width="70" height="30" as="geometry" />
        </mxCell>
        <mxCell id="fCs8iuJNnD6mWQEemUGZ-23" value="&lt;font style=&quot;font-size: 11px;&quot; face=&quot;Times New Roman&quot;&gt;&lt;b&gt;Internet Gateway&lt;/b&gt;&lt;/font&gt;" style="text;html=1;align=center;verticalAlign=middle;resizable=0;points=[];autosize=1;strokeColor=none;fillColor=none;" parent="fCs8iuJNnD6mWQEemUGZ-12" vertex="1">
          <mxGeometry x="325" y="20" width="110" height="30" as="geometry" />
        </mxCell>
        <mxCell id="fCs8iuJNnD6mWQEemUGZ-24" value="&lt;b&gt;Availability Zone-A&lt;/b&gt;" style="fillColor=none;strokeColor=#147EBA;dashed=1;verticalAlign=top;fontStyle=0;fontColor=#147EBA;whiteSpace=wrap;html=1;" parent="fCs8iuJNnD6mWQEemUGZ-12" vertex="1">
          <mxGeometry x="80" y="-20" width="240" height="520" as="geometry" />
        </mxCell>
        <mxCell id="fCs8iuJNnD6mWQEemUGZ-18" value="" style="sketch=0;outlineConnect=0;fontColor=#232F3E;gradientColor=none;fillColor=#4D27AA;strokeColor=none;dashed=0;verticalLabelPosition=bottom;verticalAlign=top;align=center;html=1;fontSize=12;fontStyle=0;aspect=fixed;pointerEvents=1;shape=mxgraph.aws4.internet_gateway;" parent="fCs8iuJNnD6mWQEemUGZ-12" vertex="1">
          <mxGeometry x="360" y="-10" width="40" height="40" as="geometry" />
        </mxCell>
        <mxCell id="gvYNi_UCrCvsKIcEG4fX-1" value="&lt;font style=&quot;font-size: 12px;&quot; face=&quot;Times New Roman&quot;&gt;&lt;b&gt;Public subnet 1&lt;/b&gt;&lt;/font&gt;" style="points=[[0,0],[0.25,0],[0.5,0],[0.75,0],[1,0],[1,0.25],[1,0.5],[1,0.75],[1,1],[0.75,1],[0.5,1],[0.25,1],[0,1],[0,0.75],[0,0.5],[0,0.25]];outlineConnect=0;gradientColor=none;html=1;whiteSpace=wrap;fontSize=12;fontStyle=0;container=1;pointerEvents=0;collapsible=0;recursiveResize=0;shape=mxgraph.aws4.group;grIcon=mxgraph.aws4.group_security_group;grStroke=0;strokeColor=#248814;fillColor=#E9F3E6;verticalAlign=top;align=left;spacingLeft=30;fontColor=#248814;dashed=0;" vertex="1" parent="fCs8iuJNnD6mWQEemUGZ-12">
          <mxGeometry x="110" y="30" width="180" height="130" as="geometry" />
        </mxCell>
        <mxCell id="gvYNi_UCrCvsKIcEG4fX-3" value="&lt;font face=&quot;Times New Roman&quot;&gt;&lt;b&gt;Private subnet 1&lt;/b&gt;&lt;/font&gt;" style="points=[[0,0],[0.25,0],[0.5,0],[0.75,0],[1,0],[1,0.25],[1,0.5],[1,0.75],[1,1],[0.75,1],[0.5,1],[0.25,1],[0,1],[0,0.75],[0,0.5],[0,0.25]];outlineConnect=0;gradientColor=none;html=1;whiteSpace=wrap;fontSize=12;fontStyle=0;container=1;pointerEvents=0;collapsible=0;recursiveResize=0;shape=mxgraph.aws4.group;grIcon=mxgraph.aws4.group_security_group;grStroke=0;strokeColor=#147EBA;fillColor=#E6F2F8;verticalAlign=top;align=left;spacingLeft=30;fontColor=#147EBA;dashed=0;" vertex="1" parent="fCs8iuJNnD6mWQEemUGZ-12">
          <mxGeometry x="110" y="170" width="180" height="130" as="geometry" />
        </mxCell>
        <mxCell id="gvYNi_UCrCvsKIcEG4fX-5" value="&lt;font face=&quot;Times New Roman&quot;&gt;&lt;b&gt;Private subnet (DB1)&lt;/b&gt;&lt;/font&gt;" style="points=[[0,0],[0.25,0],[0.5,0],[0.75,0],[1,0],[1,0.25],[1,0.5],[1,0.75],[1,1],[0.75,1],[0.5,1],[0.25,1],[0,1],[0,0.75],[0,0.5],[0,0.25]];outlineConnect=0;gradientColor=none;html=1;whiteSpace=wrap;fontSize=12;fontStyle=0;container=1;pointerEvents=0;collapsible=0;recursiveResize=0;shape=mxgraph.aws4.group;grIcon=mxgraph.aws4.group_security_group;grStroke=0;strokeColor=#147EBA;fillColor=#E6F2F8;verticalAlign=top;align=left;spacingLeft=30;fontColor=#147EBA;dashed=0;" vertex="1" parent="fCs8iuJNnD6mWQEemUGZ-12">
          <mxGeometry x="110" y="320" width="180" height="140" as="geometry" />
        </mxCell>
        <mxCell id="gvYNi_UCrCvsKIcEG4fX-105" value="" style="sketch=0;outlineConnect=0;fontColor=#232F3E;gradientColor=none;fillColor=#2E27AD;strokeColor=none;dashed=0;verticalLabelPosition=bottom;verticalAlign=top;align=center;html=1;fontSize=12;fontStyle=0;aspect=fixed;pointerEvents=1;shape=mxgraph.aws4.rds_instance;" vertex="1" parent="gvYNi_UCrCvsKIcEG4fX-5">
          <mxGeometry x="56.5" y="63" width="47" height="47" as="geometry" />
        </mxCell>
        <mxCell id="gvYNi_UCrCvsKIcEG4fX-108" value="&lt;b&gt;&lt;font face=&quot;Times New Roman&quot;&gt;MySQL&lt;/font&gt;&lt;/b&gt;" style="text;html=1;align=center;verticalAlign=middle;resizable=0;points=[];autosize=1;strokeColor=none;fillColor=none;" vertex="1" parent="gvYNi_UCrCvsKIcEG4fX-5">
          <mxGeometry x="50.5" y="110" width="60" height="30" as="geometry" />
        </mxCell>
        <mxCell id="gvYNi_UCrCvsKIcEG4fX-43" value="" style="edgeStyle=none;orthogonalLoop=1;jettySize=auto;html=1;rounded=0;entryX=0;entryY=0.5;entryDx=0;entryDy=0;entryPerimeter=0;" edge="1" parent="fCs8iuJNnD6mWQEemUGZ-12" source="gvYNi_UCrCvsKIcEG4fX-46" target="fCs8iuJNnD6mWQEemUGZ-18">
          <mxGeometry width="100" relative="1" as="geometry">
            <mxPoint x="300" y="10" as="sourcePoint" />
            <mxPoint x="192.25" y="90" as="targetPoint" />
            <Array as="points">
              <mxPoint x="192" y="10" />
            </Array>
          </mxGeometry>
        </mxCell>
        <mxCell id="gvYNi_UCrCvsKIcEG4fX-46" value="&lt;b&gt;NAT gateway&lt;/b&gt;" style="sketch=0;outlineConnect=0;fontColor=#232F3E;gradientColor=none;strokeColor=#232F3E;fillColor=#ffffff;dashed=0;verticalLabelPosition=bottom;verticalAlign=top;align=center;html=1;fontSize=12;fontStyle=0;aspect=fixed;shape=mxgraph.aws4.resourceIcon;resIcon=mxgraph.aws4.nat_gateway;" vertex="1" parent="fCs8iuJNnD6mWQEemUGZ-12">
          <mxGeometry x="170" y="90" width="40" height="40" as="geometry" />
        </mxCell>
        <mxCell id="gvYNi_UCrCvsKIcEG4fX-68" value="" style="outlineConnect=0;dashed=0;verticalLabelPosition=bottom;verticalAlign=top;align=center;html=1;shape=mxgraph.aws3.application_load_balancer;fillColor=#F58534;gradientColor=none;" vertex="1" parent="fCs8iuJNnD6mWQEemUGZ-12">
          <mxGeometry x="360" y="70" width="40" height="40" as="geometry" />
        </mxCell>
        <mxCell id="gvYNi_UCrCvsKIcEG4fX-71" value="" style="sketch=0;outlineConnect=0;fontColor=#232F3E;gradientColor=none;fillColor=#D45B07;strokeColor=none;dashed=0;verticalLabelPosition=bottom;verticalAlign=top;align=center;html=1;fontSize=12;fontStyle=0;aspect=fixed;pointerEvents=1;shape=mxgraph.aws4.instances;" vertex="1" parent="fCs8iuJNnD6mWQEemUGZ-12">
          <mxGeometry x="171" y="225.5" width="39" height="39" as="geometry" />
        </mxCell>
        <mxCell id="gvYNi_UCrCvsKIcEG4fX-76" value="&lt;b&gt;Auto Scaling group&lt;/b&gt;" style="points=[[0,0],[0.25,0],[0.5,0],[0.75,0],[1,0],[1,0.25],[1,0.5],[1,0.75],[1,1],[0.75,1],[0.5,1],[0.25,1],[0,1],[0,0.75],[0,0.5],[0,0.25]];outlineConnect=0;gradientColor=none;html=1;whiteSpace=wrap;fontSize=12;fontStyle=0;container=1;pointerEvents=0;collapsible=0;recursiveResize=0;shape=mxgraph.aws4.groupCenter;grIcon=mxgraph.aws4.group_auto_scaling_group;grStroke=1;strokeColor=#D86613;fillColor=none;verticalAlign=top;align=center;fontColor=#D86613;dashed=1;spacingTop=25;" vertex="1" parent="fCs8iuJNnD6mWQEemUGZ-12">
          <mxGeometry x="60" y="210" width="640" height="70" as="geometry" />
        </mxCell>
        <mxCell id="gvYNi_UCrCvsKIcEG4fX-82" value="" style="edgeStyle=none;orthogonalLoop=1;jettySize=auto;html=1;rounded=0;exitX=0.52;exitY=-0.033;exitDx=0;exitDy=0;exitPerimeter=0;" edge="1" parent="fCs8iuJNnD6mWQEemUGZ-12" source="gvYNi_UCrCvsKIcEG4fX-83" target="gvYNi_UCrCvsKIcEG4fX-71">
          <mxGeometry width="100" relative="1" as="geometry">
            <mxPoint x="320" y="170" as="sourcePoint" />
            <mxPoint x="420" y="170" as="targetPoint" />
            <Array as="points">
              <mxPoint x="381" y="170" />
              <mxPoint x="380" y="200" />
              <mxPoint x="190" y="200" />
            </Array>
          </mxGeometry>
        </mxCell>
        <mxCell id="gvYNi_UCrCvsKIcEG4fX-83" value="&lt;b&gt;&lt;font face=&quot;Times New Roman&quot;&gt;ALB&lt;/font&gt;&lt;/b&gt;" style="text;html=1;align=center;verticalAlign=middle;resizable=0;points=[];autosize=1;strokeColor=none;fillColor=none;" vertex="1" parent="fCs8iuJNnD6mWQEemUGZ-12">
          <mxGeometry x="355" y="110" width="50" height="30" as="geometry" />
        </mxCell>
        <mxCell id="gvYNi_UCrCvsKIcEG4fX-86" value="" style="sketch=0;points=[[0,0,0],[0.25,0,0],[0.5,0,0],[0.75,0,0],[1,0,0],[0,1,0],[0.25,1,0],[0.5,1,0],[0.75,1,0],[1,1,0],[0,0.25,0],[0,0.5,0],[0,0.75,0],[1,0.25,0],[1,0.5,0],[1,0.75,0]];points=[[0,0,0],[0.25,0,0],[0.5,0,0],[0.75,0,0],[1,0,0],[0,1,0],[0.25,1,0],[0.5,1,0],[0.75,1,0],[1,1,0],[0,0.25,0],[0,0.5,0],[0,0.75,0],[1,0.25,0],[1,0.5,0],[1,0.75,0]];outlineConnect=0;fontColor=#232F3E;gradientColor=#F34482;gradientDirection=north;fillColor=#BC1356;strokeColor=#ffffff;dashed=0;verticalLabelPosition=bottom;verticalAlign=top;align=center;html=1;fontSize=12;fontStyle=0;aspect=fixed;shape=mxgraph.aws4.resourceIcon;resIcon=mxgraph.aws4.cloudwatch_2;" vertex="1" parent="fCs8iuJNnD6mWQEemUGZ-12">
          <mxGeometry x="710" y="7" width="53" height="53" as="geometry" />
        </mxCell>
        <mxCell id="gvYNi_UCrCvsKIcEG4fX-87" value="" style="sketch=0;outlineConnect=0;fontColor=#232F3E;gradientColor=none;fillColor=#B0084D;strokeColor=none;dashed=0;verticalLabelPosition=bottom;verticalAlign=top;align=center;html=1;fontSize=12;fontStyle=0;aspect=fixed;pointerEvents=1;shape=mxgraph.aws4.alarm;" vertex="1" parent="fCs8iuJNnD6mWQEemUGZ-12">
          <mxGeometry x="712" y="130" width="50" height="50" as="geometry" />
        </mxCell>
        <mxCell id="gvYNi_UCrCvsKIcEG4fX-88" value="&lt;b&gt;&lt;font face=&quot;Times New Roman&quot;&gt;Cloudwatch&lt;/font&gt;&lt;/b&gt;" style="text;html=1;align=center;verticalAlign=middle;resizable=0;points=[];autosize=1;strokeColor=none;fillColor=none;" vertex="1" parent="fCs8iuJNnD6mWQEemUGZ-12">
          <mxGeometry x="694" y="59" width="90" height="30" as="geometry" />
        </mxCell>
        <mxCell id="gvYNi_UCrCvsKIcEG4fX-89" value="" style="sketch=0;outlineConnect=0;fontColor=#232F3E;gradientColor=none;fillColor=#B0084D;strokeColor=none;dashed=0;verticalLabelPosition=bottom;verticalAlign=top;align=center;html=1;fontSize=12;fontStyle=0;aspect=fixed;pointerEvents=1;shape=mxgraph.aws4.template;" vertex="1" parent="fCs8iuJNnD6mWQEemUGZ-12">
          <mxGeometry x="714.5" y="247.2" width="44" height="52.8" as="geometry" />
        </mxCell>
        <mxCell id="gvYNi_UCrCvsKIcEG4fX-90" value="&lt;font face=&quot;Times New Roman&quot;&gt;&lt;b&gt;Alarm&lt;/b&gt;&lt;/font&gt;" style="text;html=1;align=center;verticalAlign=middle;resizable=0;points=[];autosize=1;strokeColor=none;fillColor=none;" vertex="1" parent="fCs8iuJNnD6mWQEemUGZ-12">
          <mxGeometry x="712" y="180" width="60" height="30" as="geometry" />
        </mxCell>
        <mxCell id="gvYNi_UCrCvsKIcEG4fX-91" value="&lt;b&gt;&lt;font face=&quot;Times New Roman&quot;&gt;Scale In/Out&amp;nbsp;&lt;br&gt;Policy&lt;/font&gt;&lt;/b&gt;" style="text;html=1;align=center;verticalAlign=middle;resizable=0;points=[];autosize=1;strokeColor=none;fillColor=none;" vertex="1" parent="fCs8iuJNnD6mWQEemUGZ-12">
          <mxGeometry x="700" y="303" width="90" height="40" as="geometry" />
        </mxCell>
        <mxCell id="gvYNi_UCrCvsKIcEG4fX-95" value="" style="edgeStyle=none;orthogonalLoop=1;jettySize=auto;html=1;rounded=0;" edge="1" parent="fCs8iuJNnD6mWQEemUGZ-12" target="gvYNi_UCrCvsKIcEG4fX-87">
          <mxGeometry width="100" relative="1" as="geometry">
            <mxPoint x="739" y="60" as="sourcePoint" />
            <mxPoint x="790" y="110" as="targetPoint" />
            <Array as="points" />
          </mxGeometry>
        </mxCell>
        <mxCell id="gvYNi_UCrCvsKIcEG4fX-96" value="" style="edgeStyle=none;orthogonalLoop=1;jettySize=auto;html=1;rounded=0;exitX=0.5;exitY=1.04;exitDx=0;exitDy=0;exitPerimeter=0;" edge="1" parent="fCs8iuJNnD6mWQEemUGZ-12" source="gvYNi_UCrCvsKIcEG4fX-87" target="gvYNi_UCrCvsKIcEG4fX-89">
          <mxGeometry width="100" relative="1" as="geometry">
            <mxPoint x="740" y="220" as="sourcePoint" />
            <mxPoint x="840" y="220" as="targetPoint" />
            <Array as="points" />
          </mxGeometry>
        </mxCell>
        <mxCell id="gvYNi_UCrCvsKIcEG4fX-99" value="" style="sketch=0;points=[[0,0,0],[0.25,0,0],[0.5,0,0],[0.75,0,0],[1,0,0],[0,1,0],[0.25,1,0],[0.5,1,0],[0.75,1,0],[1,1,0],[0,0.25,0],[0,0.5,0],[0,0.75,0],[1,0.25,0],[1,0.5,0],[1,0.75,0]];outlineConnect=0;fontColor=#232F3E;gradientColor=#945DF2;gradientDirection=north;fillColor=#5A30B5;strokeColor=#ffffff;dashed=0;verticalLabelPosition=bottom;verticalAlign=top;align=center;html=1;fontSize=12;fontStyle=0;aspect=fixed;shape=mxgraph.aws4.resourceIcon;resIcon=mxgraph.aws4.route_53;" vertex="1" parent="fCs8iuJNnD6mWQEemUGZ-12">
          <mxGeometry x="350" y="283" width="60" height="60" as="geometry" />
        </mxCell>
        <mxCell id="gvYNi_UCrCvsKIcEG4fX-103" value="&lt;b&gt;&lt;font face=&quot;Times New Roman&quot;&gt;Database&lt;br&gt;DNS&lt;/font&gt;&lt;/b&gt;" style="text;html=1;align=center;verticalAlign=middle;resizable=0;points=[];autosize=1;strokeColor=none;fillColor=none;" vertex="1" parent="fCs8iuJNnD6mWQEemUGZ-12">
          <mxGeometry x="345" y="343" width="70" height="40" as="geometry" />
        </mxCell>
        <mxCell id="gvYNi_UCrCvsKIcEG4fX-106" value="" style="edgeStyle=segmentEdgeStyle;endArrow=classic;html=1;curved=0;rounded=0;endSize=8;startSize=8;sourcePerimeterSpacing=0;targetPerimeterSpacing=0;exitX=0.114;exitY=-0.025;exitDx=0;exitDy=0;exitPerimeter=0;" edge="1" parent="fCs8iuJNnD6mWQEemUGZ-12" source="gvYNi_UCrCvsKIcEG4fX-103" target="gvYNi_UCrCvsKIcEG4fX-105">
          <mxGeometry width="100" relative="1" as="geometry">
            <mxPoint x="290" y="320" as="sourcePoint" />
            <mxPoint x="390" y="360" as="targetPoint" />
            <Array as="points" />
          </mxGeometry>
        </mxCell>
        <mxCell id="gvYNi_UCrCvsKIcEG4fX-48" value="&lt;b&gt;Availability Zone-B&amp;nbsp;&lt;/b&gt;" style="fillColor=none;strokeColor=#147EBA;dashed=1;verticalAlign=top;fontStyle=0;fontColor=#147EBA;whiteSpace=wrap;html=1;" vertex="1" parent="fCs8iuJNnD6mWQEemUGZ-9">
          <mxGeometry x="480" y="100" width="240" height="520" as="geometry" />
        </mxCell>
        <mxCell id="gvYNi_UCrCvsKIcEG4fX-60" value="&lt;font style=&quot;font-size: 12px;&quot; face=&quot;Times New Roman&quot;&gt;&lt;b&gt;Public subnet 2&lt;/b&gt;&lt;/font&gt;" style="points=[[0,0],[0.25,0],[0.5,0],[0.75,0],[1,0],[1,0.25],[1,0.5],[1,0.75],[1,1],[0.75,1],[0.5,1],[0.25,1],[0,1],[0,0.75],[0,0.5],[0,0.25]];outlineConnect=0;gradientColor=none;html=1;whiteSpace=wrap;fontSize=12;fontStyle=0;container=1;pointerEvents=0;collapsible=0;recursiveResize=0;shape=mxgraph.aws4.group;grIcon=mxgraph.aws4.group_security_group;grStroke=0;strokeColor=#248814;fillColor=#E9F3E6;verticalAlign=top;align=left;spacingLeft=30;fontColor=#248814;dashed=0;" vertex="1" parent="fCs8iuJNnD6mWQEemUGZ-9">
          <mxGeometry x="510" y="150" width="180" height="130" as="geometry" />
        </mxCell>
        <mxCell id="gvYNi_UCrCvsKIcEG4fX-62" value="&lt;font face=&quot;Times New Roman&quot;&gt;&lt;b&gt;Private subnet (DB2)&lt;/b&gt;&lt;/font&gt;" style="points=[[0,0],[0.25,0],[0.5,0],[0.75,0],[1,0],[1,0.25],[1,0.5],[1,0.75],[1,1],[0.75,1],[0.5,1],[0.25,1],[0,1],[0,0.75],[0,0.5],[0,0.25]];outlineConnect=0;gradientColor=none;html=1;whiteSpace=wrap;fontSize=12;fontStyle=0;container=1;pointerEvents=0;collapsible=0;recursiveResize=0;shape=mxgraph.aws4.group;grIcon=mxgraph.aws4.group_security_group;grStroke=0;strokeColor=#147EBA;fillColor=#E6F2F8;verticalAlign=top;align=left;spacingLeft=30;fontColor=#147EBA;dashed=0;" vertex="1" parent="fCs8iuJNnD6mWQEemUGZ-9">
          <mxGeometry x="510" y="440" width="180" height="150" as="geometry" />
        </mxCell>
        <mxCell id="gvYNi_UCrCvsKIcEG4fX-104" value="" style="sketch=0;outlineConnect=0;fontColor=#232F3E;gradientColor=none;fillColor=#2E27AD;strokeColor=none;dashed=0;verticalLabelPosition=bottom;verticalAlign=top;align=center;html=1;fontSize=12;fontStyle=0;aspect=fixed;pointerEvents=1;shape=mxgraph.aws4.rds_instance;" vertex="1" parent="gvYNi_UCrCvsKIcEG4fX-62">
          <mxGeometry x="62" y="63" width="48" height="48" as="geometry" />
        </mxCell>
        <mxCell id="gvYNi_UCrCvsKIcEG4fX-63" value="&lt;b&gt;NAT gateway&lt;/b&gt;" style="sketch=0;outlineConnect=0;fontColor=#232F3E;gradientColor=none;strokeColor=#232F3E;fillColor=#ffffff;dashed=0;verticalLabelPosition=bottom;verticalAlign=top;align=center;html=1;fontSize=12;fontStyle=0;aspect=fixed;shape=mxgraph.aws4.resourceIcon;resIcon=mxgraph.aws4.nat_gateway;" vertex="1" parent="fCs8iuJNnD6mWQEemUGZ-9">
          <mxGeometry x="580" y="210" width="40" height="40" as="geometry" />
        </mxCell>
        <mxCell id="gvYNi_UCrCvsKIcEG4fX-64" value="" style="edgeStyle=none;orthogonalLoop=1;jettySize=auto;html=1;rounded=0;" edge="1" parent="fCs8iuJNnD6mWQEemUGZ-9" target="fCs8iuJNnD6mWQEemUGZ-18">
          <mxGeometry width="100" relative="1" as="geometry">
            <mxPoint x="600" y="210" as="sourcePoint" />
            <mxPoint x="770" y="130" as="targetPoint" />
            <Array as="points">
              <mxPoint x="602" y="130" />
            </Array>
          </mxGeometry>
        </mxCell>
        <mxCell id="gvYNi_UCrCvsKIcEG4fX-107" value="" style="edgeStyle=none;orthogonalLoop=1;jettySize=auto;html=1;rounded=0;" edge="1" parent="fCs8iuJNnD6mWQEemUGZ-9" source="gvYNi_UCrCvsKIcEG4fX-105" target="gvYNi_UCrCvsKIcEG4fX-104">
          <mxGeometry width="100" relative="1" as="geometry">
            <mxPoint x="340" y="520" as="sourcePoint" />
            <mxPoint x="440" y="520" as="targetPoint" />
            <Array as="points" />
          </mxGeometry>
        </mxCell>
        <mxCell id="gvYNi_UCrCvsKIcEG4fX-111" value="&lt;b&gt;&lt;font face=&quot;Times New Roman&quot;&gt;MySQL&lt;/font&gt;&lt;/b&gt;" style="text;html=1;align=center;verticalAlign=middle;resizable=0;points=[];autosize=1;strokeColor=none;fillColor=none;" vertex="1" parent="fCs8iuJNnD6mWQEemUGZ-9">
          <mxGeometry x="570" y="550" width="60" height="30" as="geometry" />
        </mxCell>
        <mxCell id="fCs8iuJNnD6mWQEemUGZ-15" style="edgeStyle=orthogonalEdgeStyle;rounded=0;orthogonalLoop=1;jettySize=auto;html=1;entryX=0.5;entryY=0;entryDx=0;entryDy=0;entryPerimeter=0;" parent="1" source="fCs8iuJNnD6mWQEemUGZ-14" target="fCs8iuJNnD6mWQEemUGZ-10" edge="1">
          <mxGeometry relative="1" as="geometry" />
        </mxCell>
        <mxCell id="fCs8iuJNnD6mWQEemUGZ-14" value="" style="sketch=0;pointerEvents=1;shadow=0;dashed=0;html=1;strokeColor=none;labelPosition=center;verticalLabelPosition=bottom;verticalAlign=top;outlineConnect=0;align=center;shape=mxgraph.office.users.users;fillColor=#2072B8;" parent="1" vertex="1">
          <mxGeometry x="527" y="30" width="46" height="50" as="geometry" />
        </mxCell>
        <mxCell id="fCs8iuJNnD6mWQEemUGZ-17" value="&lt;font style=&quot;font-size: 12px;&quot; face=&quot;Times New Roman&quot;&gt;&lt;b&gt;Users&lt;/b&gt;&lt;/font&gt;" style="text;html=1;align=center;verticalAlign=middle;resizable=0;points=[];autosize=1;strokeColor=none;fillColor=none;" parent="1" vertex="1">
          <mxGeometry x="527" y="80" width="50" height="30" as="geometry" />
        </mxCell>
        <mxCell id="gvYNi_UCrCvsKIcEG4fX-16" value="" style="shape=table;startSize=0;container=1;collapsible=0;childLayout=tableLayout;" vertex="1" parent="1">
          <mxGeometry x="1060" y="240" width="130" height="60" as="geometry" />
        </mxCell>
        <mxCell id="gvYNi_UCrCvsKIcEG4fX-17" value="" style="shape=tableRow;horizontal=0;startSize=0;swimlaneHead=0;swimlaneBody=0;strokeColor=inherit;top=0;left=0;bottom=0;right=0;collapsible=0;dropTarget=0;fillColor=none;points=[[0,0.5],[1,0.5]];portConstraint=eastwest;" vertex="1" parent="gvYNi_UCrCvsKIcEG4fX-16">
          <mxGeometry width="130" height="20" as="geometry" />
        </mxCell>
        <mxCell id="gvYNi_UCrCvsKIcEG4fX-18" value="&lt;font face=&quot;Times New Roman&quot;&gt;&lt;b&gt;&amp;nbsp;Destination&lt;span style=&quot;white-space: pre;&quot;&gt;	&lt;/span&gt;&lt;span style=&quot;white-space: pre;&quot;&gt;	&lt;/span&gt;&lt;/b&gt;&lt;/font&gt;" style="shape=partialRectangle;html=1;whiteSpace=wrap;connectable=0;strokeColor=inherit;overflow=hidden;fillColor=none;top=0;left=0;bottom=0;right=0;pointerEvents=1;" vertex="1" parent="gvYNi_UCrCvsKIcEG4fX-17">
          <mxGeometry width="70" height="20" as="geometry">
            <mxRectangle width="70" height="20" as="alternateBounds" />
          </mxGeometry>
        </mxCell>
        <mxCell id="gvYNi_UCrCvsKIcEG4fX-19" value="&lt;font face=&quot;Times New Roman&quot;&gt;&lt;b&gt;Target&lt;/b&gt;&lt;/font&gt;" style="shape=partialRectangle;html=1;whiteSpace=wrap;connectable=0;strokeColor=inherit;overflow=hidden;fillColor=none;top=0;left=0;bottom=0;right=0;pointerEvents=1;" vertex="1" parent="gvYNi_UCrCvsKIcEG4fX-17">
          <mxGeometry x="70" width="60" height="20" as="geometry">
            <mxRectangle width="60" height="20" as="alternateBounds" />
          </mxGeometry>
        </mxCell>
        <mxCell id="gvYNi_UCrCvsKIcEG4fX-20" value="" style="shape=tableRow;horizontal=0;startSize=0;swimlaneHead=0;swimlaneBody=0;strokeColor=inherit;top=0;left=0;bottom=0;right=0;collapsible=0;dropTarget=0;fillColor=none;points=[[0,0.5],[1,0.5]];portConstraint=eastwest;" vertex="1" parent="gvYNi_UCrCvsKIcEG4fX-16">
          <mxGeometry y="20" width="130" height="20" as="geometry" />
        </mxCell>
        <mxCell id="gvYNi_UCrCvsKIcEG4fX-21" value="10.0.1.0/16" style="shape=partialRectangle;html=1;whiteSpace=wrap;connectable=0;strokeColor=inherit;overflow=hidden;fillColor=none;top=0;left=0;bottom=0;right=0;pointerEvents=1;" vertex="1" parent="gvYNi_UCrCvsKIcEG4fX-20">
          <mxGeometry width="70" height="20" as="geometry">
            <mxRectangle width="70" height="20" as="alternateBounds" />
          </mxGeometry>
        </mxCell>
        <mxCell id="gvYNi_UCrCvsKIcEG4fX-22" value="local" style="shape=partialRectangle;html=1;whiteSpace=wrap;connectable=0;strokeColor=inherit;overflow=hidden;fillColor=none;top=0;left=0;bottom=0;right=0;pointerEvents=1;" vertex="1" parent="gvYNi_UCrCvsKIcEG4fX-20">
          <mxGeometry x="70" width="60" height="20" as="geometry">
            <mxRectangle width="60" height="20" as="alternateBounds" />
          </mxGeometry>
        </mxCell>
        <mxCell id="gvYNi_UCrCvsKIcEG4fX-23" value="" style="shape=tableRow;horizontal=0;startSize=0;swimlaneHead=0;swimlaneBody=0;strokeColor=inherit;top=0;left=0;bottom=0;right=0;collapsible=0;dropTarget=0;fillColor=none;points=[[0,0.5],[1,0.5]];portConstraint=eastwest;" vertex="1" parent="gvYNi_UCrCvsKIcEG4fX-16">
          <mxGeometry y="40" width="130" height="20" as="geometry" />
        </mxCell>
        <mxCell id="gvYNi_UCrCvsKIcEG4fX-24" value="0.0.0.0/0" style="shape=partialRectangle;html=1;whiteSpace=wrap;connectable=0;strokeColor=inherit;overflow=hidden;fillColor=none;top=0;left=0;bottom=0;right=0;pointerEvents=1;" vertex="1" parent="gvYNi_UCrCvsKIcEG4fX-23">
          <mxGeometry width="70" height="20" as="geometry">
            <mxRectangle width="70" height="20" as="alternateBounds" />
          </mxGeometry>
        </mxCell>
        <mxCell id="gvYNi_UCrCvsKIcEG4fX-25" value="igw-id" style="shape=partialRectangle;html=1;whiteSpace=wrap;connectable=0;strokeColor=inherit;overflow=hidden;fillColor=none;top=0;left=0;bottom=0;right=0;pointerEvents=1;" vertex="1" parent="gvYNi_UCrCvsKIcEG4fX-23">
          <mxGeometry x="70" width="60" height="20" as="geometry">
            <mxRectangle width="60" height="20" as="alternateBounds" />
          </mxGeometry>
        </mxCell>
        <mxCell id="gvYNi_UCrCvsKIcEG4fX-49" value="" style="shape=table;startSize=0;container=1;collapsible=0;childLayout=tableLayout;" vertex="1" parent="1">
          <mxGeometry x="1060" y="400" width="130" height="60" as="geometry" />
        </mxCell>
        <mxCell id="gvYNi_UCrCvsKIcEG4fX-50" value="" style="shape=tableRow;horizontal=0;startSize=0;swimlaneHead=0;swimlaneBody=0;strokeColor=inherit;top=0;left=0;bottom=0;right=0;collapsible=0;dropTarget=0;fillColor=none;points=[[0,0.5],[1,0.5]];portConstraint=eastwest;" vertex="1" parent="gvYNi_UCrCvsKIcEG4fX-49">
          <mxGeometry width="130" height="20" as="geometry" />
        </mxCell>
        <mxCell id="gvYNi_UCrCvsKIcEG4fX-51" value="&lt;font face=&quot;Times New Roman&quot;&gt;&lt;b&gt;&amp;nbsp;Destination&lt;span style=&quot;white-space: pre;&quot;&gt;	&lt;/span&gt;&lt;span style=&quot;white-space: pre;&quot;&gt;	&lt;/span&gt;&lt;/b&gt;&lt;/font&gt;" style="shape=partialRectangle;html=1;whiteSpace=wrap;connectable=0;strokeColor=inherit;overflow=hidden;fillColor=none;top=0;left=0;bottom=0;right=0;pointerEvents=1;" vertex="1" parent="gvYNi_UCrCvsKIcEG4fX-50">
          <mxGeometry width="70" height="20" as="geometry">
            <mxRectangle width="70" height="20" as="alternateBounds" />
          </mxGeometry>
        </mxCell>
        <mxCell id="gvYNi_UCrCvsKIcEG4fX-52" value="&lt;font face=&quot;Times New Roman&quot;&gt;&lt;b&gt;Target&lt;/b&gt;&lt;/font&gt;" style="shape=partialRectangle;html=1;whiteSpace=wrap;connectable=0;strokeColor=inherit;overflow=hidden;fillColor=none;top=0;left=0;bottom=0;right=0;pointerEvents=1;" vertex="1" parent="gvYNi_UCrCvsKIcEG4fX-50">
          <mxGeometry x="70" width="60" height="20" as="geometry">
            <mxRectangle width="60" height="20" as="alternateBounds" />
          </mxGeometry>
        </mxCell>
        <mxCell id="gvYNi_UCrCvsKIcEG4fX-53" value="" style="shape=tableRow;horizontal=0;startSize=0;swimlaneHead=0;swimlaneBody=0;strokeColor=inherit;top=0;left=0;bottom=0;right=0;collapsible=0;dropTarget=0;fillColor=none;points=[[0,0.5],[1,0.5]];portConstraint=eastwest;" vertex="1" parent="gvYNi_UCrCvsKIcEG4fX-49">
          <mxGeometry y="20" width="130" height="20" as="geometry" />
        </mxCell>
        <mxCell id="gvYNi_UCrCvsKIcEG4fX-54" value="10.0.1.0/16" style="shape=partialRectangle;html=1;whiteSpace=wrap;connectable=0;strokeColor=inherit;overflow=hidden;fillColor=none;top=0;left=0;bottom=0;right=0;pointerEvents=1;" vertex="1" parent="gvYNi_UCrCvsKIcEG4fX-53">
          <mxGeometry width="70" height="20" as="geometry">
            <mxRectangle width="70" height="20" as="alternateBounds" />
          </mxGeometry>
        </mxCell>
        <mxCell id="gvYNi_UCrCvsKIcEG4fX-55" value="local" style="shape=partialRectangle;html=1;whiteSpace=wrap;connectable=0;strokeColor=inherit;overflow=hidden;fillColor=none;top=0;left=0;bottom=0;right=0;pointerEvents=1;" vertex="1" parent="gvYNi_UCrCvsKIcEG4fX-53">
          <mxGeometry x="70" width="60" height="20" as="geometry">
            <mxRectangle width="60" height="20" as="alternateBounds" />
          </mxGeometry>
        </mxCell>
        <mxCell id="gvYNi_UCrCvsKIcEG4fX-56" value="" style="shape=tableRow;horizontal=0;startSize=0;swimlaneHead=0;swimlaneBody=0;strokeColor=inherit;top=0;left=0;bottom=0;right=0;collapsible=0;dropTarget=0;fillColor=none;points=[[0,0.5],[1,0.5]];portConstraint=eastwest;" vertex="1" parent="gvYNi_UCrCvsKIcEG4fX-49">
          <mxGeometry y="40" width="130" height="20" as="geometry" />
        </mxCell>
        <mxCell id="gvYNi_UCrCvsKIcEG4fX-57" value="0.0.0.0/0" style="shape=partialRectangle;html=1;whiteSpace=wrap;connectable=0;strokeColor=inherit;overflow=hidden;fillColor=none;top=0;left=0;bottom=0;right=0;pointerEvents=1;" vertex="1" parent="gvYNi_UCrCvsKIcEG4fX-56">
          <mxGeometry width="70" height="20" as="geometry">
            <mxRectangle width="70" height="20" as="alternateBounds" />
          </mxGeometry>
        </mxCell>
        <mxCell id="gvYNi_UCrCvsKIcEG4fX-58" value="nat-ntw" style="shape=partialRectangle;html=1;whiteSpace=wrap;connectable=0;strokeColor=inherit;overflow=hidden;fillColor=none;top=0;left=0;bottom=0;right=0;pointerEvents=1;" vertex="1" parent="gvYNi_UCrCvsKIcEG4fX-56">
          <mxGeometry x="70" width="60" height="20" as="geometry">
            <mxRectangle width="60" height="20" as="alternateBounds" />
          </mxGeometry>
        </mxCell>
        <mxCell id="gvYNi_UCrCvsKIcEG4fX-66" value="" style="edgeStyle=none;orthogonalLoop=1;jettySize=auto;html=1;rounded=0;entryX=0.875;entryY=0.212;entryDx=0;entryDy=0;entryPerimeter=0;exitX=0.538;exitY=1.05;exitDx=0;exitDy=0;exitPerimeter=0;" edge="1" parent="1" source="gvYNi_UCrCvsKIcEG4fX-23" target="gvYNi_UCrCvsKIcEG4fX-48">
          <mxGeometry width="100" relative="1" as="geometry">
            <mxPoint x="980" y="330" as="sourcePoint" />
            <mxPoint x="1000" y="330" as="targetPoint" />
            <Array as="points">
              <mxPoint x="1130" y="330" />
              <mxPoint x="980" y="330" />
            </Array>
          </mxGeometry>
        </mxCell>
        <mxCell id="gvYNi_UCrCvsKIcEG4fX-67" value="" style="edgeStyle=none;orthogonalLoop=1;jettySize=auto;html=1;rounded=0;entryX=0.875;entryY=0.5;entryDx=0;entryDy=0;entryPerimeter=0;" edge="1" parent="1" target="gvYNi_UCrCvsKIcEG4fX-48">
          <mxGeometry width="100" relative="1" as="geometry">
            <mxPoint x="1130" y="460" as="sourcePoint" />
            <mxPoint x="770" y="476.45161290322585" as="targetPoint" />
            <Array as="points">
              <mxPoint x="1130" y="480" />
              <mxPoint x="990" y="480" />
            </Array>
          </mxGeometry>
        </mxCell>
        <mxCell id="gvYNi_UCrCvsKIcEG4fX-69" value="" style="edgeStyle=none;orthogonalLoop=1;jettySize=auto;html=1;rounded=0;" edge="1" parent="1" target="gvYNi_UCrCvsKIcEG4fX-68">
          <mxGeometry width="100" relative="1" as="geometry">
            <mxPoint x="500" y="270" as="sourcePoint" />
            <mxPoint x="570" y="300" as="targetPoint" />
            <Array as="points">
              <mxPoint x="500" y="270" />
            </Array>
          </mxGeometry>
        </mxCell>
        <mxCell id="gvYNi_UCrCvsKIcEG4fX-74" value="&lt;font face=&quot;Times New Roman&quot;&gt;&lt;b&gt;Private subnet&lt;/b&gt;&lt;/font&gt;" style="points=[[0,0],[0.25,0],[0.5,0],[0.75,0],[1,0],[1,0.25],[1,0.5],[1,0.75],[1,1],[0.75,1],[0.5,1],[0.25,1],[0,1],[0,0.75],[0,0.5],[0,0.25]];outlineConnect=0;gradientColor=none;html=1;whiteSpace=wrap;fontSize=12;fontStyle=0;container=1;pointerEvents=0;collapsible=0;recursiveResize=0;shape=mxgraph.aws4.group;grIcon=mxgraph.aws4.group_security_group;grStroke=0;strokeColor=#147EBA;fillColor=#E6F2F8;verticalAlign=top;align=left;spacingLeft=30;fontColor=#147EBA;dashed=0;" vertex="1" parent="1">
          <mxGeometry x="590" y="410" width="180" height="130" as="geometry" />
        </mxCell>
        <mxCell id="gvYNi_UCrCvsKIcEG4fX-79" value="" style="sketch=0;outlineConnect=0;fontColor=#232F3E;gradientColor=none;fillColor=#D45B07;strokeColor=none;dashed=0;verticalLabelPosition=bottom;verticalAlign=top;align=center;html=1;fontSize=12;fontStyle=0;aspect=fixed;pointerEvents=1;shape=mxgraph.aws4.instances;" vertex="1" parent="gvYNi_UCrCvsKIcEG4fX-74">
          <mxGeometry x="60" y="50.5" width="39" height="39" as="geometry" />
        </mxCell>
        <mxCell id="gvYNi_UCrCvsKIcEG4fX-85" value="" style="edgeStyle=none;orthogonalLoop=1;jettySize=auto;html=1;rounded=0;" edge="1" parent="1" target="gvYNi_UCrCvsKIcEG4fX-79">
          <mxGeometry width="100" relative="1" as="geometry">
            <mxPoint x="500" y="440" as="sourcePoint" />
            <mxPoint x="580" y="440" as="targetPoint" />
            <Array as="points">
              <mxPoint x="670" y="440" />
            </Array>
          </mxGeometry>
        </mxCell>
        <mxCell id="gvYNi_UCrCvsKIcEG4fX-97" value="" style="edgeStyle=none;orthogonalLoop=1;jettySize=auto;html=1;rounded=0;" edge="1" parent="1" source="gvYNi_UCrCvsKIcEG4fX-89" target="gvYNi_UCrCvsKIcEG4fX-79">
          <mxGeometry width="100" relative="1" as="geometry">
            <mxPoint x="770" y="530" as="sourcePoint" />
            <mxPoint x="870" y="530" as="targetPoint" />
            <Array as="points" />
          </mxGeometry>
        </mxCell>
        <mxCell id="gvYNi_UCrCvsKIcEG4fX-94" value="" style="edgeStyle=none;orthogonalLoop=1;jettySize=auto;html=1;rounded=0;" edge="1" parent="1" source="gvYNi_UCrCvsKIcEG4fX-79">
          <mxGeometry width="100" relative="1" as="geometry">
            <mxPoint x="770" y="370" as="sourcePoint" />
            <mxPoint x="830" y="280" as="targetPoint" />
            <Array as="points" />
          </mxGeometry>
        </mxCell>
        <mxCell id="gvYNi_UCrCvsKIcEG4fX-100" value="" style="edgeStyle=none;orthogonalLoop=1;jettySize=auto;html=1;rounded=0;" edge="1" parent="1" source="gvYNi_UCrCvsKIcEG4fX-71">
          <mxGeometry width="100" relative="1" as="geometry">
            <mxPoint x="410" y="550" as="sourcePoint" />
            <mxPoint x="470" y="550" as="targetPoint" />
            <Array as="points">
              <mxPoint x="311" y="550" />
            </Array>
          </mxGeometry>
        </mxCell>
        <mxCell id="gvYNi_UCrCvsKIcEG4fX-101" value="" style="edgeStyle=none;orthogonalLoop=1;jettySize=auto;html=1;rounded=0;" edge="1" parent="1" source="gvYNi_UCrCvsKIcEG4fX-79">
          <mxGeometry width="100" relative="1" as="geometry">
            <mxPoint x="490" y="540" as="sourcePoint" />
            <mxPoint x="530" y="550" as="targetPoint" />
            <Array as="points">
              <mxPoint x="670" y="550" />
            </Array>
          </mxGeometry>
        </mxCell>
      </root>
    </mxGraphModel>
  </diagram>
</mxfile>
